<?xml version='1.0' encoding='utf-8'?>
<!DOCTYPE svg PUBLIC '-//W3C//DTD SVG 1.1//EN' 'http://www.w3.org/Graphics/SVG/1.1/DTD/svg11.dtd'>
<svg version="1.1" xmlns="http://www.w3.org/2000/svg" viewBox="0 0 512 512" xmlns:xlink="http://www.w3.org/1999/xlink" enable-background="new 0 0 512 512">
  <g>
    <g>
      <g>
        <path d="m256,59.2c-47.6,0-86.3,36.7-86.3,81.8 0,45.1 38.7,81.8 86.3,81.8 47.6,0 86.2-36.7 86.2-81.8 0-45.1-38.6-81.8-86.2-81.8zm0,204.4c-70.1,0-127.1-55-127.1-122.5 0-67.6 57-122.5 127.1-122.5 70.1,0 127.1,55 127.1,122.5 0,67.5-57,122.5-127.1,122.5z"/>
        <path d="m53.9,452.8h404.3c-9.9-65.8-51.7-123-111.8-152.5l-72.9,119.7c-8.8,14.4-26.4,14.1-34.9,0l-72.9-119.7c-60.1,29.5-101.9,86.7-111.8,152.5h-7.10543e-15zm426.7,40.7h-449.2c-17.7,0-20.6-15.7-20.4-21.3 4.2-96.3 65.2-181.4 155.3-216.8 9.2-3.6 19.8-0.1 24.9,8.4l64.8,106.4 64.7-106.3c5.2-8.5 15.7-12 24.9-8.4 90.1,35.3 151.1,120.4 155.3,216.8 0.3,5.5-2.6,21.2-20.3,21.2z"/>
      </g>
    </g>
  </g>
</svg>
